<svg xmlns="http://www.w3.org/2000/svg" viewBox="0 0 750 500"><g id="freepik--background-complete--inject-2"><path d="M502.15,73.42c.47-3.4-4.34-6.2-7.95-6.49-1.72-.14-3.51.12-5.14-.45-3.54-1.23-4.95-5.8-8.4-7.25-2.57-1.09-5.54-.12-8,1.14s-5,2.84-7.76,3c-2.43.15-5.07-.75-7.19.44-1.59.88-2.42,2.71-3.88,3.78A9.22,9.22,0,0,1,448.73,69a14.1,14.1,0,0,0-5.22.85c-1.61.74-2.95,2.44-2.61,4.19Z" style="fill:#fafafa"></path><path d="M686.24,78.63c.47-3.4-4.34-6.21-8-6.5-1.72-.13-3.51.13-5.14-.44-3.53-1.23-4.95-5.8-8.39-7.25-2.58-1.09-5.55-.12-8,1.14s-5,2.84-7.76,3c-2.43.15-5.07-.75-7.19.44-1.59.88-2.42,2.71-3.88,3.78a9.19,9.19,0,0,1-5.06,1.38,14.13,14.13,0,0,0-5.22.85c-1.61.74-3,2.44-2.61,4.18Z" style="fill:#e0e0e0"></path><path d="M126.39,97.23c.46-3.4-4.34-6.2-8-6.49-1.72-.14-3.51.12-5.14-.45-3.54-1.23-5-5.8-8.4-7.25-2.58-1.09-5.54-.12-8,1.14s-5,2.84-7.77,3c-2.42.15-5.06-.75-7.19.44-1.58.88-2.41,2.71-3.87,3.78A9.22,9.22,0,0,1,73,92.8a14.1,14.1,0,0,0-5.22.85c-1.61.74-3,2.44-2.61,4.19Z" style="fill:#e0e0e0"></path><path d="M576.11,113.72c.69-5-6.34-9.07-11.62-9.5-2.52-.2-5.13.18-7.52-.65-5.16-1.8-7.23-8.48-12.27-10.6-3.77-1.59-8.11-.18-11.77,1.66s-7.27,4.16-11.35,4.42c-3.55.22-7.41-1.09-10.52.64-2.31,1.3-3.52,4-5.66,5.54s-4.81,1.86-7.4,2-5.27.16-7.63,1.24-4.31,3.58-3.83,6.13Z" style="fill:#ebebeb"></path><path d="M222.08,123.55c.59-4.33-5.52-7.9-10.11-8.27-2.19-.17-4.47.16-6.54-.56-4.5-1.57-6.29-7.38-10.68-9.23-3.28-1.38-7.06-.15-10.24,1.45s-6.32,3.62-9.87,3.84c-3.09.2-6.45-1-9.15.56-2,1.13-3.07,3.45-4.93,4.82s-4.18,1.62-6.43,1.75-4.59.14-6.64,1.08-3.75,3.11-3.33,5.33Z" style="fill:#f5f5f5"></path><path d="M248.15,220.13c-4.14-9.32-18.12-12.28-25.68-5.43-3.74-8.54-16.67-11.11-23.39-4.65a11.71,11.71,0,0,0-20.76-7.22A22.08,22.08,0,0,0,138,193.67c-13.39-6.38-31.15-1.37-39.22,11.08-5.06-8.19-18.77-8.77-24.5-1a21.2,21.2,0,0,0-21.62-6.66,21.22,21.22,0,0,0-14.83,17.09c-9.36-6.34-23.28,1-28,11.28H271.33C270.16,217.54,254.44,214.91,248.15,220.13Z" style="fill:#e0e0e0"></path><path d="M569.43,471.87a7,7,0,0,0-2.76-2.63l-26.79-17.41a12.08,12.08,0,0,0,7.24-15.18c-2.68-7-11.07-9.67-18.41-11.34s-15.73-4.09-18.71-11c-1.48-3.43-1.28-7.42-2.86-10.81-3.44-7.41-13.14-8.73-20.45-12.39-10.58-5.3-17.05-16.53-27.2-22.63-6.05-3.64-13.59-5.65-17.46-11.55-1.06-1.61-1.82-3.5-3.37-4.65s-4.26-1-4.87.84a4.23,4.23,0,0,0,.07,2.2c5.7,26.65,26.11,47.35,38.8,71.46,8.61,16.37,13.79,34.61,24.43,49.74l32.85,10.73a76.89,76.89,0,0,0,15.36,1.48c9.86,0,21.56-3.58,24.18-13.09A5.54,5.54,0,0,0,569.43,471.87Z" style="fill:#e0e0e0"></path><path d="M659,431.07c5.63,1.78,9.28,7,13.57,11.1s11.09,7.12,15.9,3.68q-10.57-11.1-21.14-22.22l-40.09,1.29c10.63,6.3,13.12,21.45,23.47,28.21-4.51-6.91-9-13.84-12.89-21.13-.64-1.21-1.19-2.88-.17-3.79a2.61,2.61,0,0,1,1.73-.52c3.53,0,6.54,2.63,8.48,5.58s3.19,6.33,5.31,9.15,5.19,5.1,8.15,7.23l15,10.81c.31-2.74-1.12-5.37-2.66-7.66a58.74,58.74,0,0,0-11-12.27c-2.45-2.06-5.13-4-6.84-6.68a2.56,2.56,0,0,1-.51-1.46C655.34,430.87,657.5,430.61,659,431.07Z" style="fill:#f5f5f5"></path><path d="M133.83,352.13c-.67-1.36-1.81-2.52-2.06-4-.31-1.78.56-4.07-.9-5.15-1.23-.91-3.45-.21-4.15-1.57L99.55,340c-2.27,1.45-4.65,3-5.75,5.5s-.14,6,2.47,6.63c2.22.53,5-1,6.59.65a3.89,3.89,0,0,1,.81,1.73c1.24,4.63,1.52,10.35,5.7,12.69,1.88,1.05,4.17,1.11,6.12,2,4.85,2.27,6.78,9.3,12.06,10.13a3.51,3.51,0,0,0,3.71-1.46c1-1.84-.67-3.87-1.64-5.71-2.3-4.38-.86-10.08-3.37-14.35a17.64,17.64,0,0,1-1.92-3.26c-.4-1.2-.08-2.79,1.1-3.25,3-1.21,4.6,6,7.62,4.77C134.45,355.51,134.49,353.48,133.83,352.13Z" style="fill:#f5f5f5"></path><path d="M412.53,228.42l4.13,0A35.55,35.55,0,0,0,412.53,228.42Z" style="fill:#f5f5f5"></path><path d="M416.66,228.39a35.52,35.52,0,0,1,22.74,9.88c3.26,3.17,6.28,7.2,10.77,8,3.78.63,7.53-1.31,11.37-1.28,5.26,0,9.7,3.69,14.46,5.94s11.67,2.48,14.08-2.2c.25,3.91,4.33,6.37,8.1,7.44s8,1.57,10.76,4.33c2.23,2.21,3.56,5.82,6.66,6.36,1.72.29,3.42-.53,5.14-.78,3.44-.49,6.74,1.28,10.07,2.26s7.68.78,9.35-2.26l43.52,5.76a137,137,0,0,0,15.39,1.46,69.21,69.21,0,0,0,19.11-2.32c3.24-.86,6.42-2,9.61-3a35.12,35.12,0,0,1,6.5-1.69,52.71,52.71,0,0,1,7-.15c13.54,0,26.64-4.41,39.45-8.79,19.85-6.8,40.89-14.42,53.62-31.11Z" style="fill:#f5f5f5"></path><path d="M11.29,225.43c4.37,3.87,13.8,4,19.27,6,2.26.85,3.93,2.76,5.87,4.21a16.83,16.83,0,0,0,17,1.69A127.52,127.52,0,0,0,68.1,243.1a83.56,83.56,0,0,0,24.47,3.74c22.22,0,43.48-8.71,65.51-11.65,27.94-3.73,56.54,2,84.42-2.16a50.63,50.63,0,0,0,13.63-3.61,31.73,31.73,0,0,0,7.21-4.51Z" style="fill:#f5f5f5"></path><path d="M307,274c0,.14-32.41.26-72.38.26s-72.38-.12-72.38-.26,32.4-.26,72.38-.26S307,273.83,307,274Z" style="fill:#e0e0e0"></path><path d="M322.46,280.61c0,.14-12.62.26-28.19.26s-28.2-.12-28.2-.26,12.62-.26,28.2-.26S322.46,280.46,322.46,280.61Z" style="fill:#e0e0e0"></path><path d="M160.65,435.77c0,.14-25.41.26-56.74.26s-56.74-.12-56.74-.26,25.4-.26,56.74-.26S160.65,435.62,160.65,435.77Z" style="fill:#e0e0e0"></path><path d="M170.45,441.72c0,.15-12.23.26-27.31.26s-27.32-.11-27.32-.26,12.22-.26,27.32-.26S170.45,441.58,170.45,441.72Z" style="fill:#e0e0e0"></path><path d="M318.74,47.16s-.43-.12-1.21-.27a9.65,9.65,0,0,0-3.32-.09,8.87,8.87,0,0,0-4.45,2,9.24,9.24,0,0,0-3.14,5v0l-.19.74-.28-.7a10,10,0,0,0-3.76-4.55,9.78,9.78,0,0,0-4.6-1.56,12.93,12.93,0,0,0-4.5.57,4.06,4.06,0,0,1,1.14-.5,10,10,0,0,1,8.21,1.1,10.27,10.27,0,0,1,4,4.75l-.48,0,0-.06a9.56,9.56,0,0,1,3.33-5.23,9.1,9.1,0,0,1,4.69-1.94,9,9,0,0,1,3.41.25A3.51,3.51,0,0,1,318.74,47.16Z" style="fill:#e0e0e0"></path><path d="M192.1,41.59s-.36.42-1,1.16a25.35,25.35,0,0,0-2.47,3.36,24.35,24.35,0,0,0-3.67,13v.17l-.46,0a21.88,21.88,0,0,0-6-11.95,30.1,30.1,0,0,0-4.38-3.55s.13,0,.36.16.57.29,1,.57a19.17,19.17,0,0,1,3.27,2.59A21.69,21.69,0,0,1,185,59.27l-.46,0v-.16a24,24,0,0,1,3.86-13.21,21.32,21.32,0,0,1,2.61-3.3c.34-.36.64-.61.82-.79A1.28,1.28,0,0,1,192.1,41.59Z" style="fill:#e0e0e0"></path></g><g id="freepik--Dock--inject-2"><path d="M495.38,432.71,483,434l9.6-5.46L476.5,404.63l-12.62-1.25L474.05,401,438.36,347.9H291l-1.56,2.39h0l4.47,2.13-6.07,1.1A19.73,19.73,0,0,0,290.7,355c.42,0-5.71,2.17-5.71,2.17l-17.25,26.59,4.19,1.62-7.33,3.22-63.93,98.53H532Z" style="fill:#455a64"></path><path d="M447.5,361.64c0,.14-37,.26-82.57.26s-82.57-.12-82.57-.26,37-.26,82.57-.26S447.5,361.5,447.5,361.64Z" style="fill:#263238"></path><path d="M458.62,377.63c0,.15-41.79.26-93.34.26s-93.35-.11-93.35-.26,41.79-.26,93.35-.26S458.62,377.49,458.62,377.63Z" style="fill:#263238"></path><path d="M469.8,394.67c0,.14-46.63.26-104.14.26s-104.15-.12-104.15-.26,46.62-.26,104.15-.26S469.8,394.52,469.8,394.67Z" style="fill:#263238"></path><path d="M483,414.83c0,.14-52.77.26-117.85.26s-117.86-.12-117.86-.26,52.76-.26,117.86-.26S483,414.69,483,414.83Z" style="fill:#263238"></path><path d="M499.42,438.72c0,.14-59.49.12-132.86,0s-132.87-.41-132.87-.56,59.48-.13,132.87,0S499.42,438.57,499.42,438.72Z" style="fill:#263238"></path><path d="M514.59,462.46c0,.14-66.54.26-148.61.26s-148.63-.12-148.63-.26,66.53-.26,148.63-.26S514.59,462.31,514.59,462.46Z" style="fill:#263238"></path><path d="M532,487.14c0,.14-74.17.26-165.64.26s-165.66-.12-165.66-.26,74.15-.26,165.66-.26S532,487,532,487.14Z" style="fill:#263238"></path><path d="M286.58,381.56c0,.06-.25.11-.55.11s-.55-.05-.55-.11.25-.1.55-.1S286.58,381.51,286.58,381.56Z" style="fill:#263238"></path><path d="M331.41,380.46c0,.06-8.39.11-18.74.11s-18.74-.05-18.74-.11,8.39-.1,18.74-.1S331.41,380.4,331.41,380.46Z" style="fill:#263238"></path><path d="M335.45,383.77c0,.06-8.3.1-18.55.1s-18.56,0-18.56-.1,8.31-.1,18.56-.1S335.45,383.71,335.45,383.77Z" style="fill:#263238"></path><path d="M445.33,386.71c0,.06-5.27.1-11.76.1s-11.76,0-11.76-.1,5.26-.11,11.76-.11S445.33,386.65,445.33,386.71Z" style="fill:#263238"></path><path d="M459.48,407.5l-1.3.09-3.73.22a119.39,119.39,0,0,1-13.73-.5c-5.78-.52-12.62-1.52-20.19-2.73s-15.9-2.57-24.72-3.21A95.26,95.26,0,0,0,371,402.73a140.25,140.25,0,0,0-19.61,5.43c-5.47,1.92-9.84,3.64-12.86,4.81L335,414.34c-.79.31-1.22.46-1.22.46s.41-.18,1.21-.5l3.46-1.4c3-1.2,7.37-2.94,12.84-4.87A139.51,139.51,0,0,1,371,402.54a94.77,94.77,0,0,1,24.87-1.37c8.84.64,17.17,2,24.74,3.22s14.4,2.24,20.18,2.77a124.58,124.58,0,0,0,13.71.57l3.73-.18Z" style="fill:#263238"></path><path d="M453.64,452.08c0,.06-49.61.11-110.79.11s-110.8-.05-110.8-.11,49.6-.1,110.8-.1S453.64,452,453.64,452.08Z" style="fill:#263238"></path><path d="M504.53,450.19c0,.05-21.53.1-48.08.1s-48.09-.05-48.09-.1,21.52-.11,48.09-.11S504.53,450.13,504.53,450.19Z" style="fill:#263238"></path><path d="M409.9,475.39c0,.05-42.72.1-95.4.1s-95.41-.05-95.41-.1,42.71-.11,95.41-.11S409.9,475.33,409.9,475.39Z" style="fill:#263238"></path><path d="M523,473.84c0,.06-36.62.11-81.77.11s-81.77-.05-81.77-.11,36.6-.1,81.77-.1S523,473.79,523,473.84Z" style="fill:#263238"></path><path d="M479.84,425.5c0,.06-30.28.1-67.62.1s-67.64,0-67.64-.1,30.28-.1,67.64-.1S479.84,425.44,479.84,425.5Z" style="fill:#263238"></path><path d="M348.7,403.38c0,.06-19.12.11-42.69.11s-42.69-.05-42.69-.11,19.11-.1,42.69-.1S348.7,403.33,348.7,403.38Z" style="fill:#263238"></path><path d="M408.36,386.41c0,.06-12.32.11-27.52.11s-27.51,0-27.51-.11,12.31-.1,27.51-.1S408.36,386.35,408.36,386.41Z" style="fill:#263238"></path><path d="M443.33,371.5c0,.05-17.73.1-39.6.1s-39.6-.05-39.6-.1,17.72-.11,39.6-.11S443.33,371.44,443.33,371.5Z" style="fill:#263238"></path><path d="M339.44,353c0,.06-9,.11-20.06.11s-20.06,0-20.06-.11,9-.1,20.06-.1S339.44,352.92,339.44,353Z" style="fill:#263238"></path><path d="M262.66,436.2s0-.16,0-.48a5.34,5.34,0,0,1,.31-1.35,10.54,10.54,0,0,1,3.22-4.21,54.1,54.1,0,0,1,17-9.63A70.92,70.92,0,0,1,312,417c1.37.12,2.75.26,4.15.43s2.8.38,4.21.66a14.52,14.52,0,0,1,4.15,1.35,7.12,7.12,0,0,1,3.13,3.13,4.78,4.78,0,0,1,0,4.43,8.65,8.65,0,0,1-3.29,3.2,30.14,30.14,0,0,1-4.22,2l-2.21.83-2.25.74a60.1,60.1,0,0,1-18.25,2.68,61.25,61.25,0,0,1-8.76-.72c-1.43-.21-2.82-.5-4.2-.82a3.75,3.75,0,0,1-1.87-1,2,2,0,0,1-.31-2,6.14,6.14,0,0,1,3-2.7,36.21,36.21,0,0,1,3.57-1.7,37.36,37.36,0,0,1,7.27-2.12,36,36,0,0,1,13.52.09,5.94,5.94,0,0,1,1.49.44,1.88,1.88,0,0,1,1,1.1,1.58,1.58,0,0,1-.28,1.44,3.83,3.83,0,0,1-1.11.91,8.87,8.87,0,0,1-2.59.86c-.86.2-1.7.38-2.51.54a74,74,0,0,1-8.37,1.16c-2.32.19-4.12.24-5.34.25s-1.86,0-1.86,0l1.86,0c1.22,0,3-.08,5.33-.28a77.16,77.16,0,0,0,8.36-1.19c.81-.17,1.64-.35,2.5-.55a8.91,8.91,0,0,0,2.55-.85,3.51,3.51,0,0,0,1.07-.89A1.4,1.4,0,0,0,312,427a1.7,1.7,0,0,0-1-1,5.87,5.87,0,0,0-1.46-.43,35.92,35.92,0,0,0-13.46-.06,36.8,36.8,0,0,0-7.23,2.12,32.86,32.86,0,0,0-3.55,1.7,6,6,0,0,0-2.93,2.6,1.72,1.72,0,0,0,.28,1.84,3.53,3.53,0,0,0,1.78.94c1.36.3,2.75.59,4.17.8a59.57,59.57,0,0,0,8.74.71,60.3,60.3,0,0,0,18.18-2.66l2.25-.75L320,432a30.45,30.45,0,0,0,4.2-2,8.56,8.56,0,0,0,3.21-3.11,4.64,4.64,0,0,0,0-4.26,6.9,6.9,0,0,0-3-3,14.54,14.54,0,0,0-4.09-1.34c-1.41-.28-2.82-.44-4.21-.66s-2.77-.3-4.13-.43a71,71,0,0,0-28.7,3.52,54.33,54.33,0,0,0-17,9.55,10.66,10.66,0,0,0-3.23,4.16,6.09,6.09,0,0,0-.33,1.35Z" style="fill:#263238"></path><path d="M280.72,393.22a17.68,17.68,0,0,1-11.52,0V357a11.87,11.87,0,0,1,11.52,0Z" style="fill:#263238"></path><path d="M280.74,357s-.14.09-.4.22-.67.28-1.17.45a13.85,13.85,0,0,1-8.13.12,9.82,9.82,0,0,1-1.18-.42,2.75,2.75,0,0,1-.41-.2s.62.21,1.63.48a15.27,15.27,0,0,0,8.05-.12C280.13,357.2,280.73,356.94,280.74,357Z" style="fill:#455a64"></path><path d="M278.77,356.68a1.41,1.41,0,0,1-.48.36,5.85,5.85,0,0,1-1.59.42,13,13,0,0,1-2.43.12,12.12,12.12,0,0,1-1.43-.14,1,1,0,0,1-.72-.4.59.59,0,0,1,.29-.79A4.87,4.87,0,0,1,274,356a9.72,9.72,0,0,1,1.45.07,6.49,6.49,0,0,1,.66.11.87.87,0,0,1,.59.35.4.4,0,0,1-.32.55,2.12,2.12,0,0,1-.56,0l-1.63-.09a2.79,2.79,0,0,1-.6-.07,3.54,3.54,0,0,1,.6,0l1.64,0a1.73,1.73,0,0,0,.51,0c.17,0,.28-.18.21-.31-.19-.28-.7-.28-1.13-.35a7.4,7.4,0,0,0-2.87.17.38.38,0,0,0-.21.51.88.88,0,0,0,.57.3c.48.08,1,.12,1.41.15a13,13,0,0,0,2.4-.08,5.75,5.75,0,0,0,1.58-.35C278.6,356.81,278.76,356.66,278.77,356.68Z" style="fill:#455a64"></path><path d="M268.88,379a.72.72,0,0,1,0-.22c0-.19.07-.39.1-.61.12-.65.25-1.39.39-2.24.34-1.89.78-4.5,1.24-7.39s.82-5.51,1.07-7.41c.12-.85.22-1.6.31-2.25,0-.22.07-.42.1-.61a.71.71,0,0,1,0-.21s0,.07,0,.21,0,.4-.06.62l-.24,2.26c-.22,1.9-.57,4.53-1,7.43s-.92,5.5-1.29,7.38c-.17.84-.33,1.58-.46,2.23l-.14.6A.64.64,0,0,1,268.88,379Z" style="fill:#455a64"></path><path d="M280.55,362.83a4.93,4.93,0,0,0-.8-.31,3.16,3.16,0,0,0-2.22.39,7.11,7.11,0,0,0-2.28,2.53,29.45,29.45,0,0,0-2,3.77,58,58,0,0,0-2.52,7.31c-.25.86-.46,1.61-.65,2.26-.06.22-.12.42-.18.61a1.25,1.25,0,0,1-.07.21s0-.07,0-.22.1-.4.15-.62c.16-.66.35-1.41.57-2.28a52.11,52.11,0,0,1,2.48-7.36,29,29,0,0,1,2-3.78,7.07,7.07,0,0,1,2.38-2.56,3.18,3.18,0,0,1,2.31-.34A1.92,1.92,0,0,1,280.55,362.83Z" style="fill:#455a64"></path><path d="M276.73,382.22a.84.84,0,0,1,.35.49,1.43,1.43,0,0,1-.54,1.57,1.9,1.9,0,0,1-2.5-.57,4.11,4.11,0,0,1-.4-3.54,14,14,0,0,1,.58-2,2.7,2.7,0,0,1,1.59-1.65,2.14,2.14,0,0,1,2.24.86,7.9,7.9,0,0,1,1.26,2.3,9.77,9.77,0,0,1,.28,5.56,8.56,8.56,0,0,1-3.19,5,3.55,3.55,0,0,1-3,.66,3.4,3.4,0,0,1-2.1-2.07A6.51,6.51,0,0,1,271,386c.08-.94.21-1.84.34-2.72a26.71,26.71,0,0,1,2.84-9,15.85,15.85,0,0,1,4.1-4.86,9.28,9.28,0,0,1,2-1.23l-.52.31a11.6,11.6,0,0,0-1.42,1,15.91,15.91,0,0,0-4,4.86,26.94,26.94,0,0,0-2.78,9c-.13.87-.26,1.78-.33,2.7a6.33,6.33,0,0,0,.33,2.76,3.2,3.2,0,0,0,2,1.95,3.37,3.37,0,0,0,2.78-.63,8.46,8.46,0,0,0,3.12-4.89,9.62,9.62,0,0,0-.27-5.44,7.63,7.63,0,0,0-1.22-2.25,2,2,0,0,0-2.05-.81,2.52,2.52,0,0,0-1.49,1.54,16.21,16.21,0,0,0-.59,2,4.05,4.05,0,0,0,.35,3.44,1.83,1.83,0,0,0,2.37.58,1.42,1.42,0,0,0,.54-1.5A1.15,1.15,0,0,0,276.73,382.22Z" style="fill:#455a64"></path><path d="M464.25,391.28a17.71,17.71,0,0,1-11.53,0V355a11.84,11.84,0,0,1,11.53,0Z" style="fill:#263238"></path><path d="M464.26,355a2.69,2.69,0,0,1-.4.21,8.84,8.84,0,0,1-1.17.45,13.41,13.41,0,0,1-4.05.67,13.76,13.76,0,0,1-4.08-.55,8.12,8.12,0,0,1-1.17-.42,1.65,1.65,0,0,1-.42-.2s.62.22,1.63.48a15.7,15.7,0,0,0,4,.49,15.35,15.35,0,0,0,4-.61C463.65,355.27,464.25,355,464.26,355Z" style="fill:#455a64"></path><path d="M462.29,354.74a1.41,1.41,0,0,1-.48.36,5.12,5.12,0,0,1-1.59.42,12.9,12.9,0,0,1-2.43.13,12.42,12.42,0,0,1-1.43-.15,1,1,0,0,1-.72-.4.59.59,0,0,1,.29-.79,4.86,4.86,0,0,1,1.56-.24,9.68,9.68,0,0,1,1.44.06l.66.11a.85.85,0,0,1,.59.36c.15.26-.12.53-.32.54a2.15,2.15,0,0,1-.56,0l-1.63-.1a4.54,4.54,0,0,1-.59-.06,2.79,2.79,0,0,1,.6,0l1.63,0a2.16,2.16,0,0,0,.51,0c.17,0,.28-.18.21-.31-.19-.28-.69-.29-1.12-.36a7.85,7.85,0,0,0-2.88.17c-.2.11-.32.34-.21.51a.84.84,0,0,0,.58.3c.48.08,1,.13,1.4.16a13.84,13.84,0,0,0,2.4-.09,6.21,6.21,0,0,0,1.58-.34A3.06,3.06,0,0,0,462.29,354.74Z" style="fill:#455a64"></path><path d="M452.4,377a1.73,1.73,0,0,1,0-.22l.1-.61c.12-.65.25-1.39.4-2.23.33-1.89.78-4.5,1.23-7.39s.82-5.52,1.08-7.42c.11-.85.22-1.59.31-2.25l.09-.61a1.76,1.76,0,0,1,0-.21.63.63,0,0,1,0,.22c0,.19,0,.4-.05.61-.07.66-.16,1.41-.25,2.26-.22,1.91-.57,4.54-1,7.43s-.92,5.5-1.29,7.38l-.46,2.23c-.05.21-.09.41-.13.6A.8.8,0,0,1,452.4,377Z" style="fill:#455a64"></path><path d="M464.07,360.9a2.89,2.89,0,0,0-3,.08,6.87,6.87,0,0,0-2.29,2.53,29.91,29.91,0,0,0-2,3.76,58,58,0,0,0-2.52,7.31c-.25.86-.46,1.61-.64,2.27l-.18.61a1,1,0,0,1-.08.21.89.89,0,0,1,0-.22c0-.2.09-.4.14-.63.17-.65.36-1.41.58-2.27a50.25,50.25,0,0,1,2.47-7.36,28.55,28.55,0,0,1,2-3.79,7,7,0,0,1,2.37-2.55,3.2,3.2,0,0,1,2.32-.34A1.77,1.77,0,0,1,464.07,360.9Z" style="fill:#455a64"></path><path d="M460.26,380.28a.86.86,0,0,1,.34.5,1.44,1.44,0,0,1-.54,1.57,1.92,1.92,0,0,1-2.5-.57,4.16,4.16,0,0,1-.4-3.55,14.74,14.74,0,0,1,.58-2,2.75,2.75,0,0,1,1.59-1.65,2.15,2.15,0,0,1,2.25.87,7.75,7.75,0,0,1,1.25,2.3,9.82,9.82,0,0,1,.29,5.55,8.65,8.65,0,0,1-3.2,5,3.58,3.58,0,0,1-3,.65,3.4,3.4,0,0,1-2.1-2.07,6.49,6.49,0,0,1-.33-2.85c.07-.93.2-1.84.33-2.72a26.78,26.78,0,0,1,2.84-9,15.79,15.79,0,0,1,4.1-4.85,10,10,0,0,1,2-1.24l-.52.31a15.1,15.1,0,0,0-1.42,1,15.91,15.91,0,0,0-4,4.86,27,27,0,0,0-2.78,9c-.13.88-.26,1.78-.32,2.7a6.37,6.37,0,0,0,.32,2.77,3.19,3.19,0,0,0,2,1.94,3.33,3.33,0,0,0,2.78-.63,8.36,8.36,0,0,0,3.12-4.88,9.65,9.65,0,0,0-.27-5.45,7.44,7.44,0,0,0-1.21-2.24,2,2,0,0,0-2.06-.82,2.55,2.55,0,0,0-1.49,1.54,16.73,16.73,0,0,0-.59,2,4.1,4.1,0,0,0,.35,3.45,1.83,1.83,0,0,0,2.37.57,1.37,1.37,0,0,0,.54-1.49A1.34,1.34,0,0,0,460.26,380.28Z" style="fill:#455a64"></path><path d="M233.44,467.66a19.83,19.83,0,0,1-12.87,0V427.17c4.67-2.32,8.93-2.13,12.87,0Z" style="fill:#263238"></path><path d="M233.46,427.19a2.54,2.54,0,0,1-.45.23,11.34,11.34,0,0,1-1.3.5,15.67,15.67,0,0,1-4.53.75,16,16,0,0,1-4.55-.61,10.65,10.65,0,0,1-1.31-.47,1.55,1.55,0,0,1-.46-.22s.68.25,1.81.54a16.73,16.73,0,0,0,9-.13C232.78,427.45,233.45,427.15,233.46,427.19Z" style="fill:#455a64"></path><path d="M231.26,426.86a1.64,1.64,0,0,1-.54.4,6.11,6.11,0,0,1-1.77.46,14.14,14.14,0,0,1-2.71.14,15.57,15.57,0,0,1-1.6-.17,1.15,1.15,0,0,1-.8-.43.66.66,0,0,1,.32-.87,2.45,2.45,0,0,1,.89-.21c.28,0,.57-.05.85-.06a10.48,10.48,0,0,1,1.6.07c.26,0,.51.07.74.12a1,1,0,0,1,.65.39.43.43,0,0,1-.34.6,2.24,2.24,0,0,1-.63,0l-1.82-.1a3.18,3.18,0,0,1-.66-.07,4.28,4.28,0,0,1,.67,0l1.82,0a1.88,1.88,0,0,0,.58,0c.19,0,.32-.2.23-.36-.21-.32-.78-.32-1.26-.4a10.19,10.19,0,0,0-1.58-.06,5.5,5.5,0,0,0-1.63.25c-.23.12-.37.39-.25.58a1,1,0,0,0,.65.34,14.19,14.19,0,0,0,4.26.08,6.35,6.35,0,0,0,1.76-.39A5.35,5.35,0,0,0,231.26,426.86Z" style="fill:#455a64"></path><path d="M220.22,451.74a.74.74,0,0,1,0-.24c0-.21.07-.43.11-.68.12-.7.27-1.54.44-2.49.37-2.11.87-5,1.38-8.25s.91-6.16,1.2-8.28c.13-1,.25-1.8.34-2.51l.1-.69a1.16,1.16,0,0,1,.05-.23.62.62,0,0,1,0,.24c0,.21,0,.44-.06.68-.08.72-.17,1.56-.27,2.53-.25,2.12-.64,5.06-1.15,8.29s-1,6.14-1.44,8.24c-.19,1-.36,1.78-.5,2.49l-.15.67C220.25,451.67,220.23,451.75,220.22,451.74Z" style="fill:#455a64"></path><path d="M233.24,433.73a3.83,3.83,0,0,0-.88-.35,3.52,3.52,0,0,0-2.48.43,7.76,7.76,0,0,0-2.56,2.83,32.9,32.9,0,0,0-2.2,4.2,64.7,64.7,0,0,0-2.81,8.17l-.72,2.53-.2.68a.75.75,0,0,1-.08.24,1.07,1.07,0,0,1,0-.25c.05-.21.11-.44.16-.69.19-.72.4-1.57.65-2.55a58.25,58.25,0,0,1,2.77-8.21,32.55,32.55,0,0,1,2.22-4.22,8,8,0,0,1,2.65-2.86,3.62,3.62,0,0,1,2.58-.38A2,2,0,0,1,233.24,433.73Z" style="fill:#455a64"></path><path d="M229,455.37a1,1,0,0,1,.38.56,1.61,1.61,0,0,1-.6,1.75A2.14,2.14,0,0,1,226,457a4.66,4.66,0,0,1-.44-4,16.44,16.44,0,0,1,.65-2.28A3,3,0,0,1,228,449a2,2,0,0,1,1.38.08,3.26,3.26,0,0,1,1.11.88,8.71,8.71,0,0,1,1.4,2.56,10.92,10.92,0,0,1,.32,6.2,9.62,9.62,0,0,1-3.56,5.59,4,4,0,0,1-3.3.73,3.77,3.77,0,0,1-2.33-2.3,7.1,7.1,0,0,1-.38-3.18c.08-1,.23-2.05.38-3a29.89,29.89,0,0,1,3.16-10,17.34,17.34,0,0,1,4.58-5.42,11,11,0,0,1,2.21-1.39l-.58.35a14,14,0,0,0-1.58,1.1,17.85,17.85,0,0,0-4.5,5.43,29.9,29.9,0,0,0-3.1,10c-.15,1-.29,2-.37,3a6.92,6.92,0,0,0,.37,3.09,3.55,3.55,0,0,0,2.2,2.18,3.78,3.78,0,0,0,3.12-.7,9.41,9.41,0,0,0,3.48-5.47,10.77,10.77,0,0,0-.3-6.08,8.33,8.33,0,0,0-1.36-2.51,2.2,2.2,0,0,0-2.3-.92,2.88,2.88,0,0,0-1.67,1.73,17.19,17.19,0,0,0-.66,2.25,4.53,4.53,0,0,0,.4,3.85,2,2,0,0,0,2.65.64,1.55,1.55,0,0,0,.6-1.67A1.52,1.52,0,0,0,229,455.37Z" style="fill:#455a64"></path><path d="M508.59,467.68a19.53,19.53,0,0,1-12.66,0V427.85c4.59-2.27,8.78-2.09,12.66,0Z" style="fill:#263238"></path><path d="M508.61,427.87a2,2,0,0,1-.45.23,10.77,10.77,0,0,1-1.28.5,15.29,15.29,0,0,1-8.92.13,10.65,10.65,0,0,1-1.3-.46,2.33,2.33,0,0,1-.45-.21s.67.24,1.78.53a16.84,16.84,0,0,0,4.44.53,17.2,17.2,0,0,0,4.41-.66C507.94,428.13,508.59,427.84,508.61,427.87Z" style="fill:#455a64"></path><path d="M506.44,427.55a1.43,1.43,0,0,1-.53.39,6.19,6.19,0,0,1-1.74.46,13.78,13.78,0,0,1-2.67.13,12.66,12.66,0,0,1-1.57-.16,1.11,1.11,0,0,1-.78-.43.63.63,0,0,1,.31-.85,2.36,2.36,0,0,1,.87-.21l.83-.06a10.29,10.29,0,0,1,1.59.07c.25,0,.49.07.73.12a.92.92,0,0,1,.63.38.42.42,0,0,1-.34.59,2.55,2.55,0,0,1-.61,0l-1.79-.1a4.67,4.67,0,0,1-.66-.07,5,5,0,0,1,.66,0l1.79,0a2.7,2.7,0,0,0,.57,0c.19,0,.32-.2.23-.36-.21-.31-.76-.31-1.24-.39a11.17,11.17,0,0,0-1.55-.06,5.42,5.42,0,0,0-1.61.25.43.43,0,0,0-.23.57,1,1,0,0,0,.63.33,14.66,14.66,0,0,0,1.55.17,13.81,13.81,0,0,0,2.64-.09,6.53,6.53,0,0,0,1.73-.38A5.72,5.72,0,0,0,506.44,427.55Z" style="fill:#455a64"></path><path d="M495.58,452l0-.23c0-.21.07-.43.11-.67.12-.7.27-1.52.43-2.46.37-2.07.86-4.94,1.36-8.11s.9-6.06,1.18-8.14c.13-1,.24-1.77.34-2.47,0-.24.06-.47.1-.68a2.32,2.32,0,0,1,0-.23.75.75,0,0,1,0,.24c0,.21,0,.43-.06.68-.08.7-.17,1.53-.27,2.48-.25,2.09-.63,5-1.13,8.15s-1,6-1.41,8.11c-.19.94-.36,1.75-.5,2.44-.06.24-.1.46-.15.67S495.59,452,495.58,452Z" style="fill:#455a64"></path><path d="M508.39,434.31a3.34,3.34,0,0,0-.87-.35,3.48,3.48,0,0,0-2.44.43,7.66,7.66,0,0,0-2.52,2.78,33.25,33.25,0,0,0-2.16,4.14,64.28,64.28,0,0,0-2.77,8l-.7,2.48-.19.67a.91.91,0,0,1-.09.24,1.75,1.75,0,0,1,.05-.25l.16-.68.63-2.5a56.7,56.7,0,0,1,2.72-8.08,32.13,32.13,0,0,1,2.19-4.15,7.68,7.68,0,0,1,2.61-2.81,3.49,3.49,0,0,1,2.53-.38A2,2,0,0,1,508.39,434.31Z" style="fill:#455a64"></path><path d="M504.21,455.6a.93.93,0,0,1,.37.54,1.57,1.57,0,0,1-.59,1.72,2.1,2.1,0,0,1-2.74-.63,4.57,4.57,0,0,1-.44-3.88,17.94,17.94,0,0,1,.64-2.25,3,3,0,0,1,1.74-1.8,1.94,1.94,0,0,1,1.36.09,3.05,3.05,0,0,1,1.1.86,8.55,8.55,0,0,1,1.38,2.52,10.84,10.84,0,0,1,.31,6.1,9.47,9.47,0,0,1-3.51,5.49,3.87,3.87,0,0,1-3.24.72,3.74,3.74,0,0,1-2.3-2.26,7.33,7.33,0,0,1-.37-3.13c.08-1,.23-2,.37-3a29.18,29.18,0,0,1,3.12-9.87,17,17,0,0,1,4.5-5.34,10.85,10.85,0,0,1,2.17-1.36s-.19.13-.57.34a15.35,15.35,0,0,0-1.55,1.09,17.48,17.48,0,0,0-4.42,5.34,29.33,29.33,0,0,0-3.06,9.83c-.14,1-.28,2-.36,3a7,7,0,0,0,.36,3,3.49,3.49,0,0,0,2.17,2.14,3.64,3.64,0,0,0,3.06-.69,9.27,9.27,0,0,0,3.43-5.37,10.6,10.6,0,0,0-.3-6,8.26,8.26,0,0,0-1.33-2.47,2.15,2.15,0,0,0-2.26-.9,2.8,2.8,0,0,0-1.65,1.7,17.72,17.72,0,0,0-.65,2.21,4.47,4.47,0,0,0,.39,3.78,2,2,0,0,0,2.61.63,1.51,1.51,0,0,0,.59-1.64A1.27,1.27,0,0,0,504.21,455.6Z" style="fill:#455a64"></path><polygon points="474.05 400.99 474.05 404.39 464.25 403.3 474.05 400.99" style="fill:#263238"></polygon><polygon points="492.56 428.52 492.56 433.04 483.2 433.84 492.56 428.52" style="fill:#263238"></polygon><polygon points="289.46 350.29 289.46 353.23 293.93 352.42 289.46 350.29" style="fill:#263238"></polygon><polygon points="287.86 353.52 287.86 356.15 290.7 355.01 287.86 353.52" style="fill:#263238"></polygon></g><g id="freepik--Birds--inject-2"><path d="M255.58,141.73c0,.06-1.11-.39-3.15-.84a25.09,25.09,0,0,0-8.78-.34,23.62,23.62,0,0,0-11.84,5.11,24.59,24.59,0,0,0-8.36,13.26l0,.15-.25,1-.36-.9a26.44,26.44,0,0,0-10-12.08A25.53,25.53,0,0,0,200.59,143a26.86,26.86,0,0,0-8.73.8c-2,.53-3.08,1-3.1.94a3.79,3.79,0,0,1,.76-.37,18.53,18.53,0,0,1,2.27-.81,26.08,26.08,0,0,1,21.33,3,26.66,26.66,0,0,1,10.28,12.33l-.61.05,0-.15a25,25,0,0,1,8.61-13.58,23.91,23.91,0,0,1,12.15-5.1,24.16,24.16,0,0,1,8.9.55,18,18,0,0,1,2.31.73A4.24,4.24,0,0,1,255.58,141.73Z" style="fill:#263238"></path><path d="M353,83.47c0,.06-.62-.17-1.75-.4a13.9,13.9,0,0,0-4.8-.14A12.89,12.89,0,0,0,340,85.74,13.35,13.35,0,0,0,335.47,93l0,.08-.25.95-.36-.9a14.41,14.41,0,0,0-5.44-6.58,14,14,0,0,0-6.65-2.25,15,15,0,0,0-4.78.39c-1.11.27-1.7.51-1.73.46a1.61,1.61,0,0,1,.41-.23,10.1,10.1,0,0,1,1.25-.47A14.33,14.33,0,0,1,329.72,86a14.8,14.8,0,0,1,5.71,6.84l-.6.05,0-.08a13.77,13.77,0,0,1,4.79-7.54,13.32,13.32,0,0,1,11.67-2.45,8.28,8.28,0,0,1,1.27.43A1.61,1.61,0,0,1,353,83.47Z" style="fill:#263238"></path><path d="M284.79,69.84s-.6.69-1.69,1.91A42.09,42.09,0,0,0,279,77.32,40.49,40.49,0,0,0,272.86,99a2.35,2.35,0,0,1,0,.27l-.63,0a35.6,35.6,0,0,0-4-11.73,36.38,36.38,0,0,0-6-8.14A35.67,35.67,0,0,0,257,75c-1.33-.93-2.1-1.39-2.07-1.44a2.7,2.7,0,0,1,.59.28c.37.22.94.49,1.62,1a32.26,32.26,0,0,1,5.41,4.32,35.86,35.86,0,0,1,10.3,20.1l-.63.05V99a39.8,39.8,0,0,1,6.38-21.91,35.51,35.51,0,0,1,4.32-5.49c.55-.61,1.05-1,1.36-1.33S284.77,69.82,284.79,69.84Z" style="fill:#263238"></path></g><g id="freepik--Sea--inject-2"><path d="M692.15,225.43c0,.14-153.95.26-343.81.26s-343.85-.12-343.85-.26,153.92-.26,343.85-.26S692.15,225.29,692.15,225.43Z" style="fill:#263238"></path><path d="M683.6,424.13c0,.15-23.62.26-52.74.26s-52.75-.11-52.75-.26,23.61-.26,52.75-.26S683.6,424,683.6,424.13Z" style="fill:#263238"></path><path d="M632.42,426.61c0,.14-.83.26-1.86.26s-1.85-.12-1.85-.26.83-.26,1.85-.26S632.42,426.47,632.42,426.61Z" style="fill:#455a64"></path><path d="M641.86,427.16c0,.15-.88.26-2,.26s-2-.11-2-.26.88-.26,2-.26S641.86,427,641.86,427.16Z" style="fill:#455a64"></path><path d="M648.47,427.3c0,.14-.76.26-1.69.26s-1.69-.12-1.69-.26.76-.26,1.69-.26S648.47,427.16,648.47,427.3Z" style="fill:#455a64"></path><path d="M658.25,427.16a9.48,9.48,0,0,1-4.41,0,9.48,9.48,0,0,1,4.41,0Z" style="fill:#455a64"></path><path d="M649.57,429.3c0,.14-.82.26-1.82.26s-1.83-.12-1.83-.26.82-.26,1.83-.26S649.57,429.15,649.57,429.3Z" style="fill:#455a64"></path><path d="M644.2,430.05a9.19,9.19,0,0,1-4.34,0,9.19,9.19,0,0,1,4.34,0Z" style="fill:#455a64"></path><path d="M606.79,292.57c0,.15-29.93.26-66.86.26s-66.86-.11-66.86-.26,29.93-.26,66.86-.26S606.79,292.43,606.79,292.57Z" style="fill:#263238"></path><path d="M646.08,304.75c0,.15-29.94.26-66.86.26s-66.87-.11-66.87-.26,29.94-.26,66.87-.26S646.08,304.61,646.08,304.75Z" style="fill:#263238"></path><path d="M734.6,233c0,.14-63.16.26-141.06.26s-141.08-.12-141.08-.26,63.15-.26,141.08-.26S734.6,232.85,734.6,233Z" style="fill:#455a64"></path><path d="M525.72,238.25c0,.15-18.75.27-41.86.27S442,238.4,442,238.25s18.74-.26,41.87-.26S525.72,238.11,525.72,238.25Z" style="fill:#455a64"></path><path d="M744.33,237.79c0,.14-15.1.26-33.72.26s-33.73-.12-33.73-.26,15.1-.26,33.73-.26S744.33,237.65,744.33,237.79Z" style="fill:#455a64"></path><path d="M211.63,341.49c0,.14-30.09.26-67.21.26s-67.21-.12-67.21-.26,30.09-.26,67.21-.26S211.63,341.35,211.63,341.49Z" style="fill:#263238"></path><path d="M222.17,326.24c0,.14-11.44.26-25.56.26s-25.55-.12-25.55-.26,11.44-.26,25.55-.26S222.17,326.09,222.17,326.24Z" style="fill:#263238"></path><path d="M124,345.91a102.25,102.25,0,0,1-10.24.26,102.13,102.13,0,0,1-10.23-.26,102.13,102.13,0,0,1,10.23-.26A102.25,102.25,0,0,1,124,345.91Z" style="fill:#455a64"></path><path d="M112,350.58a16.32,16.32,0,0,1-4.07.06,15.88,15.88,0,0,1-4-.47,16.06,16.06,0,0,1,4.07-.05A15.63,15.63,0,0,1,112,350.58Z" style="fill:#455a64"></path><path d="M107.53,355.84c0,.15-.83.22-1.84.16s-1.82-.22-1.81-.36.83-.21,1.84-.16S107.54,355.7,107.53,355.84Z" style="fill:#455a64"></path></g><g id="freepik--Mountain--inject-2"><path d="M739.39,164c-8.42-5.64-28.07-6.1-35.5.78-2.95-5.61-13.49-3-13.49,3.31-5.24-4.25-14.58,1.86-12.8,8.36-3.87-5-13.4-2.64-14.56,3.54l-28.78-10.19a41.27,41.27,0,0,0-38.52-2.51,6.72,6.72,0,0,0-12,5.85,7.93,7.93,0,0,0-11.27,3.66c-3.12-4.16-11.27-1.3-11.11,3.9-4.4-2.64-11.05,1.13-11.05,6.27-2.47-4.51-10.23-4.44-12.62.11a10.37,10.37,0,0,0-11.59-7.1A25.57,25.57,0,0,0,496.7,177a6.7,6.7,0,0,0-12.18,5.12c-4.55-3.86-12.67-1.89-14.94,3.63-3.22-4-11.14-.44-10.35,4.61-2.8-4-10.65-.57-9.58,4.21-2.76-4.65-11.68-1.4-10.81,3.92-5.62-3.56-14.22-.58-16.42,5.71-2.39-4.88-11.54-2.67-11.43,2.76-3-5.47-11.77-6.5-16-1.87-4.2-4.92-12.59-5.42-17.35-1,1.58-4.21-3.27-9.2-7.53-7.73a11.1,11.1,0,1,0-22.16.38,5.55,5.55,0,1,0-4.06,10.18,6.4,6.4,0,1,0-9.17,8.59,8.74,8.74,0,0,0-13.2,10.32H739.39Z" style="fill:#455a64"></path><path d="M547.11,187.07s-.34-.3-1.06-.74a7.76,7.76,0,0,0-3.41-1.1,7.09,7.09,0,0,0-5.19,1.61,7.51,7.51,0,0,0-2.61,6.43l0,.25h-.26a9.42,9.42,0,0,0-7.06,3.3,9.56,9.56,0,0,0-2.41,8.32l.1.46-.45-.16a10.3,10.3,0,0,0-1.22-.34,9,9,0,0,0-8.49,2.84,9.15,9.15,0,0,0-1.94,7.87l.12.49-.45-.24a10.37,10.37,0,0,0-7.23-1,11.73,11.73,0,0,0-5.17,2.48,11.55,11.55,0,0,0-3,4,1.43,1.43,0,0,1,.11-.33c.09-.21.19-.53.39-.92a10.35,10.35,0,0,1,2.36-3,12,12,0,0,1,5.27-2.65,10.77,10.77,0,0,1,7.53.94l-.33.25a9.58,9.58,0,0,1,2-8.3,9.43,9.43,0,0,1,9-3A8.41,8.41,0,0,1,525,205l-.34.3a10,10,0,0,1,2.55-8.77,9.83,9.83,0,0,1,7.45-3.41l-.23.25a7.87,7.87,0,0,1,2.81-6.76,7.36,7.36,0,0,1,5.45-1.59,7.5,7.5,0,0,1,3.47,1.25,6.48,6.48,0,0,1,.76.6C547,187,547.12,187.06,547.11,187.07Z" style="fill:#263238"></path><path d="M675.32,174.91a16.42,16.42,0,0,0-12.49,4.33,15.34,15.34,0,0,0-4.67,7.79l0,.21-.2,0a12,12,0,0,0-7.42,1.8,13,13,0,0,0-5.38,6.33,11.34,11.34,0,0,0-.71,3l-.06.43-.35-.24a8.34,8.34,0,0,0-9.45,0,8.44,8.44,0,0,0-3.35,7.8l.07.49-.4-.29a7.78,7.78,0,0,0-6.52-1.09,7.4,7.4,0,0,0-4.13,3.07,7.94,7.94,0,0,0-1.24,3.14c-.12.77-.1,1.19-.14,1.19a1.16,1.16,0,0,1,0-.3,6.49,6.49,0,0,1,0-.91,7.83,7.83,0,0,1,5.4-6.52,8.11,8.11,0,0,1,6.86,1.07l-.33.21a8.63,8.63,0,0,1,13.52-8.3l-.41.19a11.92,11.92,0,0,1,.75-3.09c2.23-5.71,8.25-9,13.33-8.41l-.26.18a15.6,15.6,0,0,1,4.87-8,16.73,16.73,0,0,1,6.37-3.59,15.15,15.15,0,0,1,4.7-.64c.55,0,1,.09,1.26.11S675.33,174.89,675.32,174.91Z" style="fill:#263238"></path><path d="M591.88,220.54a3.06,3.06,0,0,1,.55-1A8.69,8.69,0,0,1,599,216a9,9,0,0,1,5.42,1.52l-.39.14v-.05a6.22,6.22,0,0,1,3.89-4,5.69,5.69,0,0,1,4.59.37,6,6,0,0,1,2.29,2.12,2.49,2.49,0,0,1,.44,1.05s-.19-.36-.61-.94a6.24,6.24,0,0,0-2.28-1.9,5.44,5.44,0,0,0-4.27-.25,5.78,5.78,0,0,0-3.54,3.74l0,0-.11.34-.29-.19a8.67,8.67,0,0,0-5.11-1.47,8.34,8.34,0,0,0-4.2,1.27A11.6,11.6,0,0,0,591.88,220.54Z" style="fill:#263238"></path><path d="M430.73,204.08a8.39,8.39,0,0,0-2.25.91,6.6,6.6,0,0,0-2,1.93,5.9,5.9,0,0,0-1,3.34v.51l-.38-.33a6.27,6.27,0,0,0-3.75-1.47,5.88,5.88,0,0,0-4.23,1.44,6.3,6.3,0,0,0-2.1,5.38l.08.6-.47-.38a6.41,6.41,0,0,0-4.28-1.35,6.29,6.29,0,0,0-3.35,1.21,8.33,8.33,0,0,0-2.12,2.46,2.37,2.37,0,0,1,.34-.82,6.14,6.14,0,0,1,1.59-1.87,6.46,6.46,0,0,1,3.52-1.39,6.72,6.72,0,0,1,4.6,1.38l-.39.22A6.74,6.74,0,0,1,416.8,210a6.34,6.34,0,0,1,4.6-1.55,6.58,6.58,0,0,1,4,1.63l-.37.17a6.17,6.17,0,0,1,1.16-3.56,6.44,6.44,0,0,1,2.13-1.94,5.57,5.57,0,0,1,1.73-.65A2,2,0,0,1,430.73,204.08Z" style="fill:#263238"></path><path d="M722.44,178.41a13.29,13.29,0,0,0-4.53,0,11.58,11.58,0,0,0-4.56,2,10.85,10.85,0,0,0-3.84,4.77l-.11.26-.24-.12a11.67,11.67,0,0,0-10.67.27,11.64,11.64,0,0,0-4.33,4.26,12.12,12.12,0,0,0-1.48,3.87c-.19,1-.21,1.53-.26,1.52a1.71,1.71,0,0,1,0-.4,8.13,8.13,0,0,1,.08-1.15,11.78,11.78,0,0,1,5.78-8.52,12.09,12.09,0,0,1,7.57-1.4,11.94,11.94,0,0,1,3.55,1.09L709,185a11,11,0,0,1,4.07-5,11.68,11.68,0,0,1,4.75-1.92,10,10,0,0,1,3.4,0,5.92,5.92,0,0,1,.89.21C722.34,178.35,722.45,178.39,722.44,178.41Z" style="fill:#263238"></path></g><g id="freepik--Character--inject-2"><polygon points="388.49 344.08 389.48 367.45 402.1 367.17 401.16 343.75 388.49 344.08" style="fill:#FF725E"></polygon><path d="M395.68,366.43c.1,0-.09-5.12-.44-11.43s-.71-11.41-.82-11.41.09,5.13.44,11.43S395.57,366.44,395.68,366.43Z" style="fill:#263238"></path><polygon points="389.42 365.84 402.03 365.52 402.1 367.17 389.48 367.45 389.42 365.84" style="fill:#263238"></polygon><path d="M401.8,359.69s-.1-.2-.35-.5a8.71,8.71,0,0,0-1.18-1.15,8.58,8.58,0,0,0-2.1-1.27,6.73,6.73,0,0,0-7.78,1.82,5.69,5.69,0,0,0-.86,1.41c-.15.37-.2.58-.17.58a13.13,13.13,0,0,1,1.23-1.81,6.7,6.7,0,0,1,4.64-2.16,7.72,7.72,0,0,1,4.88,1.64C401.2,359.07,401.75,359.73,401.8,359.69Z" style="fill:#263238"></path><polygon points="388.8 353.52 389.08 356.73 401.63 355.6 401.55 353.52 388.8 353.52" style="opacity:0.30000000000000004"></polygon><path d="M340.07,346.83l.54,14s-14,5-14.16,7.57l27.16.22.06-21.89Z" style="fill:#FF725E"></path><path d="M348.85,359.71a1.11,1.11,0,0,1,.77,1.28,1.08,1.08,0,0,1-1.25.78,1.19,1.19,0,0,1-.82-1.36,1.12,1.12,0,0,1,1.4-.67" style="fill:#e0e0e0"></path><path d="M353.61,368.65v-1.74l-26.37.31a2.06,2.06,0,0,0-.94,1.36Z" style="fill:#263238"></path><path d="M340.36,361c0,.13.68.19,1.34.62s1,1,1.13.94-.08-.83-.89-1.33S340.33,360.83,340.36,361Z" style="fill:#263238"></path><path d="M337.49,362.15c0,.13.55.35,1,.92s.59,1.16.73,1.16.21-.77-.37-1.46S337.49,362,337.49,362.15Z" style="fill:#263238"></path><path d="M335.86,365.6c.12,0,.31-.65,0-1.38s-1-1-1-.91.33.5.61,1.11S335.73,365.58,335.86,365.6Z" style="fill:#263238"></path><path d="M340.59,357.72c.06.12.68-.07,1.43,0s1.35.29,1.42.17-.5-.59-1.39-.63S340.53,357.61,340.59,357.72Z" style="fill:#263238"></path><path d="M340.1,354.7a2.73,2.73,0,0,0,1.37,0,6.68,6.68,0,0,0,1.44-.45,8.71,8.71,0,0,0,.79-.42,1.77,1.77,0,0,0,.41-.32.59.59,0,0,0,.06-.72.72.72,0,0,0-.59-.3,1.57,1.57,0,0,0-.51.07,5.44,5.44,0,0,0-.86.3,5,5,0,0,0-1.26.83c-.64.59-.85,1.09-.81,1.12s.37-.38,1-.87a5.52,5.52,0,0,1,1.22-.69,6.08,6.08,0,0,1,.79-.25c.29-.07.54-.07.61.05s0,.07,0,.16a1.3,1.3,0,0,1-.3.23,7.85,7.85,0,0,1-.72.42,7.57,7.57,0,0,1-1.33.51A8.8,8.8,0,0,0,340.1,354.7Z" style="fill:#263238"></path><g style="opacity:0.30000000000000004"><polygon points="353.69 355.17 353.64 358.28 340.51 358.22 340.52 355.4 353.69 355.17"></polygon></g><polygon points="402.36 228.96 399.88 238.25 392.62 229.72 396.49 221.19 402.36 225.43 402.36 228.96" style="fill:#ffbe9d"></polygon><path d="M403.78,151.23s3.69,4,4.1,8.34,6.79,43,6.79,43-9.84,24.58-12.31,26.43l-7.47-3.07,6.15-26.4-4.46-17.93Z" style="fill:#FF725E"></path><path d="M413.06,204.58a5.42,5.42,0,0,1-3.89.15,5.5,5.5,0,0,1-3.32-2,19.37,19.37,0,0,0,3.45,1.55A19.68,19.68,0,0,0,413.06,204.58Z" style="fill:#263238"></path><path d="M412.08,183.89a19.49,19.49,0,0,1-1.9,1.17c-1.19.7-2.82,1.68-4.58,2.82s-3.32,2.23-4.44,3a16.91,16.91,0,0,1-1.84,1.26,2.58,2.58,0,0,1,.44-.41c.29-.26.72-.61,1.27-1,1.09-.85,2.63-2,4.4-3.12s3.42-2.1,4.64-2.75c.61-.33,1.11-.58,1.46-.75A2.62,2.62,0,0,1,412.08,183.89Z" style="fill:#fff"></path><path d="M409,170.6a18.1,18.1,0,0,1-1.77.84,32,32,0,0,0-4.09,2.28,33,33,0,0,0-3.7,2.86c-.9.8-1.43,1.33-1.46,1.3s.1-.17.32-.42a13.75,13.75,0,0,1,1-1,25.11,25.11,0,0,1,3.68-3,25.4,25.4,0,0,1,4.17-2.23c.56-.23,1-.4,1.35-.5A1.82,1.82,0,0,1,409,170.6Z" style="fill:#fff"></path><path d="M407.4,159.21a18.42,18.42,0,0,0-3.8,1.28,17.81,17.81,0,0,0-3.24,2.36,3.42,3.42,0,0,1,.75-.94,10.21,10.21,0,0,1,2.35-1.7,9.89,9.89,0,0,1,2.75-.93A3.21,3.21,0,0,1,407.4,159.21Z" style="fill:#fff"></path><path d="M413.17,202s-.63-.29-1.67-.69a15.53,15.53,0,0,0-8.53-.8c-1.09.2-1.75.43-1.77.37s.15-.09.45-.2a9.06,9.06,0,0,1,1.27-.39,14,14,0,0,1,4.4-.3,13.85,13.85,0,0,1,4.27,1.11,9.2,9.2,0,0,1,1.18.62A2,2,0,0,1,413.17,202Z" style="fill:#fff"></path><path d="M406.76,216.5c-.05,0-.31-.57-.85-1.46a14.85,14.85,0,0,0-2.54-3.11,15.14,15.14,0,0,0-3.31-2.3c-.92-.47-1.53-.68-1.52-.73a1.23,1.23,0,0,1,.45.09,10.68,10.68,0,0,1,1.17.44,12.73,12.73,0,0,1,3.42,2.27,13.17,13.17,0,0,1,2.53,3.23,8.9,8.9,0,0,1,.52,1.13C406.74,216.34,406.78,216.49,406.76,216.5Z" style="fill:#fff"></path><path d="M342.14,226.07c.09.37,3.74,9.83,3.74,9.83l6-2.57.45-7.9-2.43-4.24Z" style="fill:#ffbe9d"></path><path d="M362.92,138.36c-.9,0-15.12,6.55-17.61,8.13s-16.48,52.59-16.48,55.3,13.3,25.78,13.3,25.78,7.12-3.24,8-3.91-6.27-23.57-6.27-23.57l5.94-21.77Z" style="fill:#FF725E"></path><path d="M341.64,202a3.44,3.44,0,0,1-1.08,1.2,8.64,8.64,0,0,1-7.43,1.58,3.3,3.3,0,0,1-1.47-.66,9.38,9.38,0,0,1,1.55.3,10.2,10.2,0,0,0,3.71-.08,9.77,9.77,0,0,0,3.42-1.44C341.14,202.34,341.57,201.91,341.64,202Z" style="fill:#263238"></path><path d="M347.46,213.89c0,.05-.65.2-1.64.6a14.27,14.27,0,0,0-3.6,2.12,13.85,13.85,0,0,0-2.8,3.09c-.6.9-.88,1.51-.93,1.49a1.55,1.55,0,0,1,.15-.45,8.47,8.47,0,0,1,.59-1.16,12.47,12.47,0,0,1,6.51-5.3,9.39,9.39,0,0,1,1.24-.34A1.56,1.56,0,0,1,347.46,213.89Z" style="fill:#fff"></path><path d="M343,205.69a5.49,5.49,0,0,1-1.27,1.07,13.41,13.41,0,0,1-3.6,1.75,13.67,13.67,0,0,1-4,.63,5.87,5.87,0,0,1-1.65-.15c0-.05.63,0,1.64-.07a16.52,16.52,0,0,0,3.87-.71,16.19,16.19,0,0,0,3.58-1.63C342.46,206.05,343,205.65,343,205.69Z" style="fill:#fff"></path><path d="M344.06,195a18.09,18.09,0,0,1-1.77-.59,37.7,37.7,0,0,0-4.31-1.17,36.73,36.73,0,0,0-4.43-.61,15.54,15.54,0,0,1-1.85-.16,7.79,7.79,0,0,1,1.86-.06,27,27,0,0,1,8.81,1.8A8.14,8.14,0,0,1,344.06,195Z" style="fill:#fff"></path><path d="M346.92,184.47c-.05,0-.47-.58-1.31-1.44a14.62,14.62,0,0,0-3.72-2.74,14.79,14.79,0,0,0-4.41-1.4c-1.18-.17-1.93-.15-1.93-.2s.18-.05.52-.06a9.22,9.22,0,0,1,1.43,0A13.24,13.24,0,0,1,342,180a12.9,12.9,0,0,1,3.74,2.86,9,9,0,0,1,.89,1.13A2.6,2.6,0,0,1,346.92,184.47Z" style="fill:#fff"></path><path d="M346.12,166.63a8.91,8.91,0,0,0-6.92-2.15,6.6,6.6,0,0,1,6.92,2.15Z" style="fill:#fff"></path><g style="opacity:0.30000000000000004"><path d="M348.91,181.86a86.85,86.85,0,0,1-2.57-11.14,28.77,28.77,0,0,1,.43-11.36c1.56,7.23,1.71,14.67,1.86,22.06l-.07-.63"></path></g><path d="M345.86,155.74a11.89,11.89,0,0,0-.94-1.83,12.45,12.45,0,0,0-1.45-1.46,3.63,3.63,0,0,1,2.39,3.29Z" style="fill:#fff"></path><path d="M345.88,223.37l-4.26,61.87s-3.3,24.91-3.3,32.75,1.12,37.91,1.12,37.91h15.29l15.59-107s1.56-1.34,1.79,0,9.11,39.65,10,45.78c.69,4.89,6.41,59.91,6.41,59.91l13.21-.56s1.24-49.57.34-65.48l-2.35-54.79-3.21-15.53-43.19-1.61Z" style="fill:#263238"></path><path d="M387,245.05c0,.14-5.71,1.11-12.81,2.17s-12.86,1.8-12.88,1.66,5.71-1.11,12.81-2.17S387,244.91,387,245.05Z" style="fill:#455a64"></path><path d="M356,291c.07.14-2.54,1.58-5.58,3.62s-5.38,3.9-5.48,3.78A36.42,36.42,0,0,1,356,291Z" style="fill:#455a64"></path><path d="M398.94,290.54a31.65,31.65,0,0,0-5.82,0,31.26,31.26,0,0,0-5.6,1.6,11.17,11.17,0,0,1,5.52-2.12A11.43,11.43,0,0,1,398.94,290.54Z" style="fill:#455a64"></path><path d="M379.21,139.39a5.08,5.08,0,0,1-1.15,0c-.73-.05-1.79-.13-3.09-.34a16.66,16.66,0,0,1-4.45-1.35,9.85,9.85,0,0,1-4.28-3.77,15.16,15.16,0,0,1-1.75-5.43c-.27-1.72-.43-3.27-.65-4.56a30,30,0,0,0-1-4.08,3.71,3.71,0,0,1,.53,1,16.23,16.23,0,0,1,.87,3c.27,1.29.47,2.84.76,4.54a15.31,15.31,0,0,0,1.73,5.24,9.54,9.54,0,0,0,4,3.61,17.19,17.19,0,0,0,4.3,1.41C377.59,139.15,379.22,139.29,379.21,139.39Z" style="fill:#263238"></path><path d="M372.25,95.11l.37-.1a7.09,7.09,0,0,1,5.8-3.45A9.19,9.19,0,0,1,384.85,94c1.23,1.08,2.19,2.43,3.42,3.5A5.36,5.36,0,0,0,392.72,99c.2.59-.91.94-.85,1.57a.75.75,0,0,0,.63.55,9.55,9.55,0,0,0,1.31,0,1,1,0,0,1,1.05.64,1.25,1.25,0,0,1-.06.63,11.16,11.16,0,0,1-2.59,5.07,5.94,5.94,0,0,1-5.19,1.89,9.38,9.38,0,0,1-4-2.23l-6.82-5.46a15.25,15.25,0,0,1-2.9-2.77A5.16,5.16,0,0,1,372.25,95.11Z" style="fill:#263238"></path><path d="M373.67,95.49a7.41,7.41,0,0,0-3.17-1.58,4.47,4.47,0,0,0-3.42.66A9.67,9.67,0,0,0,365,97.14a4.15,4.15,0,0,1-2.57,2,.93.93,0,0,0-.55.18c-.25.24-.07.7.24.84a1.62,1.62,0,0,0,1,0,3.58,3.58,0,0,1-2.14,1.2,1.57,1.57,0,0,0,1.92,1.11,15.88,15.88,0,0,0-.63,3.91,5.43,5.43,0,0,0,1.28,3.67c1,1.08,2.61,1.68,3,3.07" style="fill:#263238"></path><path d="M383.23,142.24,365.49,142l2-15.11s-1.22-.26-1.3-6.83-.38-17.74-.38-17.74h0a22.86,22.86,0,0,1,22.95,2.89l1,.75Z" style="fill:#ffbe9d"></path><path d="M387.66,114.06c.11,0,4.52-1.33,4.37,3.16s-4.62,3.42-4.62,3.29S387.66,114.06,387.66,114.06Z" style="fill:#ffbe9d"></path><path d="M366.56,113.12c-.11-.05-4.11-1.13-4,3.37s4.62,3.42,4.63,3.29S366.56,113.12,366.56,113.12Z" style="fill:#ffbe9d"></path><path d="M389.12,113.56c-.67,3.76-.54,5.74-1.16,8.26a13.22,13.22,0,0,1-6.54,9c-3.59,2-8.44,1.95-11.52-.75a10.51,10.51,0,0,1-4-6.83c-.32-2.82-1.15-8.13-1.17-11,0-5.13.13-9.73.13-9.73l14.66-2.66,8.33,5Z" style="fill:#263238"></path><path d="M374,133.1a6.55,6.55,0,0,0,5-.55c0-.11-1.13.23-2.5.37S374,133,374,133.1Z" style="fill:#263238"></path><path d="M388.41,120c.43-3.86.71-8.27,1.31-12.34a26.08,26.08,0,0,0,.64-5.26c-.14-1.54-.56-1.07-1.24-2.47-.85-1.74-4.11-2.9-6-3.29s-2.15-2-3.61-.75a4.76,4.76,0,0,0-8.67,2,3.3,3.3,0,0,0-5.45,3.31,3.22,3.22,0,0,0-2.18,4.94c.68,1,1.9,1.62,2.65,2.62a3.76,3.76,0,0,1,.23,4.06" style="fill:#263238"></path><path d="M369.53,119.16a8.59,8.59,0,0,0,2.74,7.24,24.29,24.29,0,0,1-1.85-3.44A24.94,24.94,0,0,1,369.53,119.16Z" style="fill:#455a64"></path><path d="M367.56,115.88a5.72,5.72,0,0,0-.28,3.56,5.65,5.65,0,0,0,1.52,3.22,19.41,19.41,0,0,1-1.12-3.3A20.48,20.48,0,0,1,367.56,115.88Z" style="fill:#455a64"></path><path d="M390.46,110.69s2.42,0,3.09,1.14-.2,9.45-1.08,10.19-4.56-.4-4.56-.4,1.55-8.45.94-10.6Z" style="fill:#FF725E"></path><path d="M362.59,110.09a4.91,4.91,0,0,0-2.38,1.7c-.67,1.14.12,8.89,1,9.63s4.56-.4,4.56-.4-1.47-8.79-.87-10.93Z" style="fill:#FF725E"></path><path d="M362.59,110.09s.83-14.52,14.58-14.72,14,15.43,14,15.43l-2.07.17s.46-14.22-11.35-14.73S364,109.57,364.9,110.09Z" style="fill:#FF725E"></path><path d="M386,100.35a10.05,10.05,0,0,0-4.57-4.09,5.87,5.87,0,0,0-5.89.74" style="fill:#263238"></path><path d="M385.65,110.29a3.73,3.73,0,0,1,.14-1.32,16.85,16.85,0,0,0,.34-3.12,6.83,6.83,0,0,0-.67-3c-.35-.71-.71-1.08-.65-1.14s.5.24,1,1a6,6,0,0,1,.87,3.16,11.06,11.06,0,0,1-.5,3.2A3.5,3.5,0,0,1,385.65,110.29Z" style="fill:#455a64"></path><path d="M382.62,111.78a7.31,7.31,0,0,1,.58-2.08,7.69,7.69,0,0,1,.72-2,3.53,3.53,0,0,1-.22,2.19C383.33,111,382.74,111.85,382.62,111.78Z" style="fill:#455a64"></path><path d="M368.54,110.62a3.68,3.68,0,0,1-1-1.6,7.92,7.92,0,0,1,1.72-8.6,3.83,3.83,0,0,1,1.54-1.1c.05.07-.54.49-1.27,1.35a8.43,8.43,0,0,0-1.65,8.22C368.23,110,368.62,110.58,368.54,110.62Z" style="fill:#455a64"></path><path d="M384.56,93.91a6,6,0,0,1-1.44-.61,8.71,8.71,0,0,0-3.54-.87,4.33,4.33,0,0,0-3.2,1.35,10.14,10.14,0,0,0-.82,1.28c-.06,0-.08-.67.53-1.51a4,4,0,0,1,1.37-1.14,4.8,4.8,0,0,1,2.12-.5,7.52,7.52,0,0,1,3.7,1.06C384.13,93.46,384.6,93.85,384.56,93.91Z" style="fill:#455a64"></path><path d="M364.52,98.07s.05-.52.53-1.18a4.84,4.84,0,0,1,5.71-1.66c.75.31,1.11.67,1.07.72s-.46-.18-1.19-.37a5.16,5.16,0,0,0-5.31,1.54C364.82,97.68,364.6,98.11,364.52,98.07Z" style="fill:#455a64"></path><path d="M369.36,114.59c0-.07.72-.26,1.9-.79a15.13,15.13,0,0,0,4.34-2.94l.85-.82-.46,1.09a10.24,10.24,0,0,0-.64,2.14c-.07.37-.13.83,0,.89s.5-.08.84-.32a13.71,13.71,0,0,0,3-2.66l.78-.94-.36,1.16c-.35,1.16-.68,2.24-1,3.22l-.33-.21a19.94,19.94,0,0,0,2.87-3.61,3.8,3.8,0,0,1-.51,1.17,12.29,12.29,0,0,1-2.08,2.74l-.55.54.21-.75c.28-1,.59-2.07.91-3.24l.43.23a13.39,13.39,0,0,1-3.11,2.79c-.19.11-.35.23-.58.34a.84.84,0,0,1-.85,0,.88.88,0,0,1-.29-.78,5.43,5.43,0,0,1,.09-.62,9.77,9.77,0,0,1,.7-2.24l.38.27a14,14,0,0,1-4.56,2.86A6.31,6.31,0,0,1,369.36,114.59Z" style="fill:#455a64"></path><path d="M377.93,97.26a2.31,2.31,0,0,0-1.42-1.09,4.14,4.14,0,0,0-1.82,0,6.51,6.51,0,0,0-3.82,2.22c-.22.26-.42.66-.18.91a.73.73,0,0,0,.5.18,28.23,28.23,0,0,0,6.62-.24" style="fill:#263238"></path><path d="M363.92,121.58a19.94,19.94,0,0,1-1.28-5.64,19.31,19.31,0,0,1-.07-5.78c.15,0,.21,2.58.59,5.72S364.06,121.54,363.92,121.58Z" style="fill:#263238"></path><path d="M389.3,121.92a15.27,15.27,0,0,1,.69-1.55,14.71,14.71,0,0,0,1-3.88,38.27,38.27,0,0,0,.22-4,5.69,5.69,0,0,1,.11-1.7,5.4,5.4,0,0,1,.25,1.69,20.12,20.12,0,0,1-.07,4.13,11.68,11.68,0,0,1-1.19,4C389.82,121.48,389.35,122,389.3,121.92Z" style="fill:#263238"></path><path d="M388,138a12.26,12.26,0,0,1,.15-2.34c.14-1.44.34-3.43.52-5.62s.29-4.2.38-5.64a12.08,12.08,0,0,1,.23-2.34,9.38,9.38,0,0,1,.14,2.35c0,1.45-.06,3.46-.23,5.67s-.44,4.19-.68,5.63A9.26,9.26,0,0,1,388,138Z" style="fill:#263238"></path><path d="M388.87,111.25a4.22,4.22,0,0,1,4.62.24c-.07.14-1.05-.24-2.3-.29S388.92,111.39,388.87,111.25Z" style="fill:#263238"></path><path d="M360,112.16s0-.37.34-.83a4,4,0,0,1,3.8-1.65c.54.09.85.25.83.31a10.31,10.31,0,0,0-2.75.46C360.76,111.06,360.1,112.25,360,112.16Z" style="fill:#263238"></path><path d="M401.75,164.54c-.68.68-5.65,26.19-6.1,31.16s5.78,25.63,2.06,30.59l-2.08.56H345.57l4.26-34.76-2-29.13.36-18,14.76-6.6h21.67s19.19,11.29,19.19,12.87S401.75,164.54,401.75,164.54Z" style="fill:#FF725E"></path><path d="M345.88,224.37a2.59,2.59,0,0,1,0-.66c0-.43.06-1.07.12-1.88.13-1.63.38-4,.71-6.91.67-5.83,1.68-13.9,2.88-22.87v.06l-.13-1.33c-.89-9.32-1.45-17.77-1.93-23.88-.23-3-.41-5.47-.55-7.24-.06-.81-.1-1.46-.14-2a2.76,2.76,0,0,1,0-.69,5.7,5.7,0,0,1,.12.68c.06.5.13,1.15.23,1.95.2,1.71.44,4.18.72,7.23.57,6.1,1.19,14.55,2.08,23.86l.13,1.33v.06c-1.19,8.94-2.26,17-3,22.85-.36,2.86-.66,5.2-.87,6.88-.09.77-.16,1.39-.22,1.87A5.11,5.11,0,0,1,345.88,224.37Z" style="fill:#263238"></path><path d="M396.8,227.57s.14-.17.4-.5a10.66,10.66,0,0,0,1-1.5,7.08,7.08,0,0,0,.88-2.71,21.39,21.39,0,0,0-.36-3.82c-.85-5.71-2.21-13.63-3.75-22.57v-.1c.28-1.42.56-2.93.82-4.47,1.66-10,2.9-19.09,3.86-25.67.46-3.24.84-5.89,1.12-7.78.13-.88.24-1.59.32-2.12a3.75,3.75,0,0,1,.15-.73,4.11,4.11,0,0,1,0,.74c-.06.54-.14,1.25-.23,2.13-.23,1.9-.56,4.56-1,7.81-.86,6.59-2,15.69-3.7,25.71-.27,1.54-.55,3-.83,4.49v-.1c1.53,9,2.82,16.88,3.58,22.61a20.33,20.33,0,0,1,.29,3.9,6.86,6.86,0,0,1-1,2.77,9,9,0,0,1-1.11,1.48A2.25,2.25,0,0,1,396.8,227.57Z" style="fill:#263238"></path><path d="M388.57,137.22a1.89,1.89,0,0,0-2.1-.91c.39-.95-.75-1.92-1.77-1.84a6,6,0,0,0-2.71,1.34,12.35,12.35,0,0,1-12.79.37c-1.71-1-3.35-2.47-5.32-2.4-2.2.09-3.79,2-5.08,3.82-.69,1-1.4,2.13-.95,3.21l.84-.13c1.55,4.34,3.24,8.89,6.77,11.85a14.26,14.26,0,0,0,15.87,1.22,16.16,16.16,0,0,0,7.79-14.15A4.59,4.59,0,0,0,388.57,137.22Z" style="fill:#FF725E"></path><path d="M389.22,141.21a1.59,1.59,0,0,1-.08.48c-.06.32-.18.78-.34,1.37a29.47,29.47,0,0,1-1.81,4.85,17.71,17.71,0,0,1-4.7,6.08,13.7,13.7,0,0,1-4,2.26,11,11,0,0,1-4.9.55,15.12,15.12,0,0,1-4.7-1.42A21.23,21.23,0,0,1,364.8,153a12.61,12.61,0,0,1-2.85-3,16.39,16.39,0,0,1-1.61-3.22c-.77-2.05-1.23-3.75-1.64-4.9s-.65-1.77-.61-1.78a2.63,2.63,0,0,1,.24.42c.14.29.33.73.56,1.29.47,1.13,1,2.83,1.79,4.84a17,17,0,0,0,1.63,3.11,12.33,12.33,0,0,0,2.78,2.87,21.13,21.13,0,0,0,3.84,2.27,15.34,15.34,0,0,0,4.54,1.37,10.58,10.58,0,0,0,4.67-.53,13.19,13.19,0,0,0,3.85-2.14,17.76,17.76,0,0,0,4.67-5.88,34.05,34.05,0,0,0,1.95-4.74A16.47,16.47,0,0,1,389.22,141.21Z" style="fill:#263238"></path><g style="opacity:0.30000000000000004"><path d="M384.18,135.06c-.73-.41-1.33.18-2,.73-2.05,1.78-5.42,2.21-8.08,1.93a12.79,12.79,0,0,1-7.11-2.81,4.58,4.58,0,0,0-2.28-1,2,2,0,0,0-1.91.78,4.75,4.75,0,0,1,2.52,2.54c1,1.85,1.61,3.83,2.47,5.72a12.74,12.74,0,0,0,3.62,5,6.14,6.14,0,0,0,5.86,1.09,8.41,8.41,0,0,0,3.69-3.61,31.44,31.44,0,0,0,3.58-8C384.82,136.58,384.93,135.49,384.18,135.06Z"></path></g><path d="M385.27,136s-.22.49-.59,1.36-.8,2.19-1.3,3.83a16.77,16.77,0,0,1-2.54,5.49,8,8,0,0,1-2.77,2.35,5.45,5.45,0,0,1-3.9.34,7.77,7.77,0,0,1-3.33-2,12.2,12.2,0,0,1-2.09-2.94c-1.06-2-1.71-4-2.48-5.49a13.42,13.42,0,0,0-2.18-3.35c-.63-.71-1.07-1-1-1a1.23,1.23,0,0,1,.33.19,7.35,7.35,0,0,1,.86.72,12.67,12.67,0,0,1,2.36,3.32c.82,1.53,1.51,3.46,2.57,5.43a12.08,12.08,0,0,0,2,2.81,7.36,7.36,0,0,0,3.11,1.89,5,5,0,0,0,3.54-.3,7.62,7.62,0,0,0,2.61-2.18,17.24,17.24,0,0,0,2.57-5.32,31.4,31.4,0,0,1,1.47-3.79,8.76,8.76,0,0,1,.54-1A1.42,1.42,0,0,1,385.27,136Z" style="fill:#263238"></path><path d="M385.68,143.6a3.46,3.46,0,0,1-.25,1,9.9,9.9,0,0,1-1.28,2.41,11.29,11.29,0,0,1-16,2.67,10.26,10.26,0,0,1-2-1.86,3.15,3.15,0,0,1-.55-.84,19.34,19.34,0,0,0,2.75,2.4,11.29,11.29,0,0,0,15.55-2.59A21,21,0,0,0,385.68,143.6Z" style="fill:#263238"></path><path d="M394.07,207.79a1.25,1.25,0,0,1-.41.07c-.27,0-.66,0-1.18.06a22.2,22.2,0,0,1-4.31-.4,32.05,32.05,0,0,1-6.16-1.87,56.83,56.83,0,0,1-7-3.59c-4.78-2.87-9-5.65-12.05-7.61l-3.61-2.37a9.37,9.37,0,0,1-1.28-.93,9.19,9.19,0,0,1,1.39.76l3.7,2.23c3.12,1.88,7.35,4.61,12.12,7.47a59.76,59.76,0,0,0,6.92,3.59,33.53,33.53,0,0,0,6,2,27.6,27.6,0,0,0,4.25.56A14.39,14.39,0,0,1,394.07,207.79Z" style="fill:#263238"></path><g style="opacity:0.30000000000000004"><path d="M360.2,192.35l-.41.09,14.74,8.89c3.7,2.23,7.5,4.5,11.74,5.3A62,62,0,0,0,360.2,192.35Z"></path></g><g style="opacity:0.30000000000000004"><path d="M358.71,140.78a20.33,20.33,0,0,0,9.42,16.86,11.49,11.49,0,0,0,6.77,2,10.11,10.11,0,0,0,6.25-3,20.19,20.19,0,0,0,3.94-5.86A13.82,13.82,0,0,1,365.17,153c-3.69-3.09-5.5-7.85-6.74-12.5"></path></g><g style="opacity:0.30000000000000004"><path d="M367.51,149.27a11.91,11.91,0,0,0,8.87,3.46,8.66,8.66,0,0,0,7.51-5.44,11.95,11.95,0,0,1-16.44,1.64"></path></g><path d="M359.44,146.44a19.32,19.32,0,0,1-2.09.36c-1.29.19-3.07.47-5,.83s-3.72.73-5,1a16.93,16.93,0,0,1-2.07.41,1.91,1.91,0,0,1,.53-.2c.35-.11.86-.26,1.49-.42,1.27-.33,3-.74,5-1.1s3.76-.6,5.06-.74c.65-.07,1.17-.12,1.54-.14A2.11,2.11,0,0,1,359.44,146.44Z" style="fill:#fff"></path><path d="M365.29,138.23a9.94,9.94,0,0,0-3.38,1.94,10.13,10.13,0,0,0-2.16,3.25,2.85,2.85,0,0,1,.3-1.14,7.07,7.07,0,0,1,1.64-2.34,7,7,0,0,1,2.44-1.48A2.65,2.65,0,0,1,365.29,138.23Z" style="fill:#fff"></path><path d="M367.13,148.45c0,.09-.79.54-1.56,1.38s-1.19,1.7-1.27,1.66a3.36,3.36,0,0,1,1-1.87A3.53,3.53,0,0,1,367.13,148.45Z" style="fill:#fff"></path><path d="M369.76,146c0,.09-.71.31-1.48.82s-1.28,1.06-1.35,1,.35-.75,1.18-1.28A2.69,2.69,0,0,1,369.76,146Z" style="fill:#fff"></path><path d="M373.57,156.18a2.94,2.94,0,0,1-.91-2.08,2.86,2.86,0,0,1,.58-2.19,8,8,0,0,0-.26,2.17A8.39,8.39,0,0,0,373.57,156.18Z" style="fill:#fff"></path><path d="M377.65,151.09c0,.07-.41-.14-.54-.61s.09-.85.16-.81,0,.36.15.72S377.71,151,377.65,151.09Z" style="fill:#fff"></path><path d="M382.54,152.52a3.52,3.52,0,0,0,.09-1.51,3.73,3.73,0,0,0-.73-1.32s.2,0,.44.22a2,2,0,0,1,.6,1,2.06,2.06,0,0,1-.09,1.19C382.72,152.41,382.57,152.54,382.54,152.52Z" style="fill:#fff"></path><path d="M384.72,146c-.08,0-.19-.72-1-1.08a2.3,2.3,0,0,0-1.45-.12s.11-.18.41-.28a1.58,1.58,0,0,1,1.18.12,1.65,1.65,0,0,1,.8.87C384.81,145.83,384.76,146,384.72,146Z" style="fill:#fff"></path><path d="M387.93,143.19c-.06,0-.07-.32-.22-.79a3.71,3.71,0,0,0-1.07-1.55,3.62,3.62,0,0,0-1.7-.82c-.48-.09-.8-.05-.81-.11a1.41,1.41,0,0,1,.84-.11,3.4,3.4,0,0,1,2.95,2.53A1.46,1.46,0,0,1,387.93,143.19Z" style="fill:#fff"></path><path d="M399.72,159.55h-.53l-1.51,0-5.58-.1c-4.71-.08-11.21-.16-18.39-.13s-13.69.16-18.4.29l-5.57.15-1.52,0h-.53a3.13,3.13,0,0,1,.53-.05l1.51-.09,5.58-.25c4.7-.18,11.21-.35,18.4-.38s13.69.08,18.4.22l5.57.2,1.51.08A3.13,3.13,0,0,1,399.72,159.55Z" style="fill:#fff"></path><path d="M398.71,148.25a8.48,8.48,0,0,1-1.54-.22c-.95-.16-2.26-.38-3.71-.58s-2.77-.33-3.73-.42a8.75,8.75,0,0,1-1.54-.2,7,7,0,0,1,1.56,0,37.68,37.68,0,0,1,3.76.33c1.45.2,2.76.45,3.7.67A6.8,6.8,0,0,1,398.71,148.25Z" style="fill:#fff"></path><path d="M397.91,174a2.2,2.2,0,0,1-.5.06l-1.41.1c-1.24.09-3,.19-5.23.29-4.41.2-10.51.39-17.26.42s-12.85-.12-17.26-.3c-2.21-.09-4-.17-5.23-.25l-1.42-.09a2.75,2.75,0,0,1-.49-.05,2.38,2.38,0,0,1,.5,0l1.42,0,5.23.15c4.41.12,10.51.23,17.25.2s12.84-.17,17.25-.32l5.23-.19,1.42,0Z" style="fill:#fff"></path><path d="M396.29,189.63l-.47,0-1.33.07c-1.16,0-2.83.1-4.9.15-4.15.1-9.87.16-16.19.07s-12-.3-16.18-.51c-2.07-.11-3.75-.21-4.9-.29l-1.33-.1a2.13,2.13,0,0,1-.46-.05,1.48,1.48,0,0,1,.46,0l1.33,0,4.91.19c4.13.15,9.85.33,16.17.42s12,.06,16.18,0l4.91-.06h1.33A2.42,2.42,0,0,1,396.29,189.63Z" style="fill:#fff"></path><path d="M371.79,200.86a5.5,5.5,0,0,1-.92.11c-.58.06-1.44.11-2.49.16-2.11.11-5,.18-8.25.1s-6.14-.28-8.24-.49c-1.05-.1-1.9-.2-2.48-.28a4.16,4.16,0,0,1-.91-.16,6.33,6.33,0,0,1,.92,0l2.49.18c2.1.15,5,.32,8.23.4s6.12,0,8.23,0l2.5-.06A6,6,0,0,1,371.79,200.86Z" style="fill:#fff"></path><path d="M396.49,202.15a3.29,3.29,0,0,1-.71.17c-.47.09-1.14.2-2,.32-1.68.25-4,.52-6.58.68s-4.93.18-6.62.13c-.85,0-1.53,0-2-.08a3.42,3.42,0,0,1-.74-.08,3.14,3.14,0,0,1,.74,0l2,0c1.69,0,4-.07,6.6-.22s4.89-.39,6.57-.58l2-.23A2.38,2.38,0,0,1,396.49,202.15Z" style="fill:#fff"></path><path d="M397.69,217.31l-.51.07-1.45.15c-1.25.14-3.08.28-5.34.43-4.51.29-10.77.49-17.67.27s-13.14-.81-17.63-1.39c-2.24-.28-4-.55-5.3-.76l-1.44-.24a2.42,2.42,0,0,1-.49-.11,2.69,2.69,0,0,1,.5,0l1.45.19c1.25.17,3.06.4,5.31.66,4.49.52,10.71,1.08,17.61,1.3s13.14.05,17.65-.18c2.26-.12,4.08-.23,5.34-.33l1.46-.09A2,2,0,0,1,397.69,217.31Z" style="fill:#fff"></path></g></svg>